<?xml version="1.0"?>
<svg xmlns="http://www.w3.org/2000/svg" enable-background="new 0 0 256 256" height="512px" viewBox="0 0 256 256" width="512px" class=""><g><circle cx="128" cy="128" fill="#1387ce" r="125.5" data-original="#1387CE" class="" style="fill:#005600" data-old_color="#1387ce"/><path d="m137.135 135.595c10.723 2.221 20.762 8.386 27.657 18.548 3.084 4.549.422 10.748-4.972 11.668.09 2.132-.788 4.279-2.575 5.725-2.997 2.426-7.393 1.963-9.819-1.034l-16.702-20.633c-10.105-.931-20.617 3.301-27.028 12.749-2.34 3.448-7.032 4.347-10.481 2.006-3.447-2.34-4.345-7.034-2.007-10.481 6.939-10.225 17.09-16.417 27.922-18.597l-6.191-7.648h-17.714c-3.92 2.855-7.548 6.282-10.76 10.289-2.606 3.252-7.356 3.775-10.607 1.169-3.253-2.607-3.775-7.356-1.169-10.607.235-.293.485-.563.723-.851h-55.987c0 .102-.004.203-.004.306 0 61.267 49.667 110.934 110.934 110.934s110.934-49.667 110.934-110.934c0-.102-.004-.203-.004-.306h-56.683c.235.285.476.562.708.851 2.606 3.252 2.083 8.001-1.169 10.607-3.251 2.606-8.001 2.083-10.607-1.169-3.216-4.011-6.847-7.433-10.766-10.289h-29.865m-2.903 65.067c-6.842 0-12.389-5.547-12.389-12.389s5.547-12.389 12.389-12.389 12.389 5.547 12.389 12.389-5.547 12.389-12.389 12.389z" fill="#45bdf0" data-original="#45BDF0" class="active-path" style="fill:#005600" data-old_color="#45bdf0"/><path d="m128.355 16.658c-61.267 0-110.934 49.667-110.934 110.934 0 .102.003.204.004.306h55.986c6.885-8.325 15.178-14.639 24.213-18.92l-21.288-26.3c-2.426-2.997-1.963-7.393 1.034-9.819s7.393-1.963 9.819 1.034l24.439 30.193c25.158-5.933 52.956 2.015 70.974 23.812h56.683c0-.102.004-.204.004-.306 0-61.268-49.667-110.934-110.934-110.934zm-50.694 67.656 9.577 11.832c-7.744 4.573-14.878 10.546-21.012 17.943-2.66 3.208-7.417 3.651-10.626.991-3.206-2.66-3.651-7.416-.991-10.626 6.782-8.177 14.596-14.871 23.052-20.14zm122.738 30.766c-3.208 2.66-7.965 2.217-10.626-.991-22.694-27.363-58.911-35.347-89.543-24.085l-9.944-12.285c37.365-16.06 83.015-7.133 111.104 26.736 2.671 3.219 2.204 7.976-.991 10.625z" fill="#45bdf0" data-original="#45BDF0" class="active-path" style="fill:#005600" data-old_color="#45bdf0"/><path d="m147.425 170.502-71.089-87.825c-2.426-2.997-1.963-7.393 1.034-9.819 2.997-2.426 7.393-1.963 9.819 1.034l71.089 87.824c2.426 2.997 1.963 7.393-1.034 9.819-2.996 2.427-7.393 1.964-9.819-1.033z" fill="#fc3850" data-original="#FC3850" class="" style="fill:#FC3850"/><path d="m122.517 117.537 8.386 10.36h29.865c-11.268-8.212-24.95-11.665-38.251-10.36z" fill="#45bdf0" data-original="#45BDF0" class="active-path" style="fill:#005600" data-old_color="#45bdf0"/><path d="m112.939 127.897-5.457-6.742c-4.294 1.694-8.416 3.944-12.257 6.742z" fill="#45bdf0" data-original="#45BDF0" class="active-path" style="fill:#005600" data-old_color="#45bdf0"/><g fill="#edf4fc"><circle cx="128" cy="180.576" r="12.389" data-original="#EDF4FC" class=""/><path d="m183.31 128.748c-17.992-22.448-46.196-30.674-71.682-24.663l10.888 13.451c17.927-1.759 36.557 5.106 49.017 20.65 2.606 3.252 7.356 3.775 10.607 1.169 3.253-2.606 3.777-7.355 1.17-10.607z" data-original="#EDF4FC" class=""/><path d="m97.625 108.977c-9.347 4.429-17.916 11.012-24.936 19.771-2.607 3.251-2.084 8 1.169 10.607 3.251 2.606 8.001 2.083 10.607-1.169 6.36-7.934 14.341-13.608 23.018-17.031z" data-original="#EDF4FC" class=""/><path d="m77.661 84.314c-8.456 5.269-16.269 11.963-23.051 20.141-2.66 3.21-2.215 7.965.991 10.626 3.209 2.66 7.965 2.217 10.626-.991 6.134-7.397 13.268-13.371 21.012-17.943z" data-original="#EDF4FC" class=""/><path d="m201.39 104.454c-28.089-33.869-73.74-42.796-111.104-26.736l9.944 12.285c30.631-11.261 66.849-3.278 89.543 24.085 2.66 3.208 7.418 3.651 10.626.991 3.195-2.648 3.662-7.405.991-10.625z" data-original="#EDF4FC" class=""/><path d="m119.13 135.545c-10.832 2.18-20.983 8.372-27.922 18.597-2.339 3.447-1.441 8.141 2.007 10.481 3.449 2.341 8.141 1.441 10.481-2.007 6.411-9.447 16.924-13.679 27.028-12.748z" data-original="#EDF4FC" class=""/><path d="m164.792 154.143c-6.895-10.162-16.934-16.327-27.657-18.548l21.144 26.121c.981 1.212 1.467 2.652 1.526 4.098 5.404-.91 8.074-7.118 4.987-11.671z" data-original="#EDF4FC" class=""/></g><path d="m128.355 241.637c-62.548 0-113.434-50.886-113.434-113.434l.004-.318c.007-1.376 1.124-2.488 2.5-2.488h55.986c.968 0 1.85.559 2.262 1.436.412.876.281 1.912-.336 2.658-.118.143-.238.281-.358.42-.115.133-.23.265-.342.403-.842 1.05-1.225 2.367-1.077 3.706.147 1.34.809 2.542 1.86 3.385s2.365 1.229 3.708 1.078c1.34-.147 2.542-.808 3.385-1.86 3.272-4.083 7.054-7.698 11.239-10.747.428-.312.943-.479 1.472-.479h17.714c.754 0 1.468.341 1.943.927l6.191 7.648c.55.68.705 1.597.409 2.42s-1.001 1.431-1.859 1.603c-10.783 2.171-20.14 8.404-26.346 17.551-1.562 2.302-.96 5.446 1.342 7.009 1.115.757 2.459 1.033 3.782.781 1.324-.254 2.47-1.007 3.226-2.123 6.613-9.745 17.572-14.921 29.327-13.834.671.062 1.29.392 1.714.917l16.701 20.633c1.554 1.92 4.382 2.218 6.303.664 1.109-.897 1.71-2.237 1.65-3.676-.053-1.258.837-2.358 2.077-2.57 1.721-.293 3.102-1.385 3.789-2.995.685-1.607.516-3.359-.465-4.806-6.158-9.077-15.426-15.292-26.094-17.502-1.352-.28-2.221-1.603-1.941-2.955s1.603-2.217 2.955-1.941c11.949 2.475 22.326 9.433 29.219 19.592 1.925 2.84 2.271 6.419.926 9.574-1.079 2.529-3.104 4.463-5.604 5.428-.393 2.236-1.579 4.293-3.365 5.738-4.064 3.289-10.046 2.659-13.335-1.404l-16.021-19.793c-9.505-.523-18.315 3.81-23.696 11.739-1.506 2.22-3.788 3.721-6.423 4.226-2.637.504-5.311-.048-7.531-1.555-4.583-3.111-5.78-9.37-2.671-13.953 6.183-9.111 15.16-15.639 25.572-18.679l-2.965-3.663h-15.699c-3.57 2.685-6.808 5.829-9.634 9.353-1.678 2.094-4.071 3.409-6.739 3.703-2.665.295-5.289-.469-7.383-2.146-2.094-1.679-3.409-4.072-3.703-6.739-.157-1.428-.012-2.842.415-4.17h-49.062c1.173 58.782 49.355 106.24 108.412 106.24s107.238-47.458 108.412-106.24h-49.773c.426 1.328.572 2.743.414 4.171-.294 2.667-1.609 5.06-3.703 6.738-2.092 1.678-4.711 2.444-7.383 2.146-2.667-.294-5.061-1.609-6.738-3.703-2.818-3.515-6.058-6.658-9.64-9.353h-29.041c-1.381 0-2.5-1.119-2.5-2.5s1.119-2.5 2.5-2.5h29.865c.529 0 1.045.168 1.473.48 4.198 3.06 7.98 6.675 11.244 10.746.843 1.052 2.045 1.713 3.385 1.86 1.341.151 2.657-.235 3.708-1.078 2.171-1.74 2.522-4.922.782-7.093-.126-.157-.254-.309-.383-.461l-.304-.364c-.615-.747-.744-1.781-.331-2.656s1.293-1.433 2.261-1.433h56.683c1.376 0 2.493 1.112 2.5 2.488l.004.318c-.001 62.545-50.887 113.432-113.435 113.432zm-.355-46.172c-8.209 0-14.889-6.679-14.889-14.889s6.679-14.889 14.889-14.889 14.889 6.679 14.889 14.889-6.68 14.889-14.889 14.889zm0-24.778c-5.453 0-9.889 4.436-9.889 9.889s4.436 9.889 9.889 9.889 9.889-4.436 9.889-9.889-4.436-9.889-9.889-9.889z" data-original="#000000" class="" style="fill:#000000"/><path d="m128 256c-70.58 0-128-57.42-128-128s57.42-128 128-128 128 57.42 128 128-57.42 128-128 128zm0-251c-67.822 0-123 55.178-123 123s55.178 123 123 123 123-55.178 123-123-55.178-123-123-123z" data-original="#000000" class="" style="fill:#000000"/><path d="m127.744 241.624c-.011 0-.022 0-.034 0-19.523-.263-37.768-12.328-51.373-33.971-13.394-21.307-20.771-49.523-20.771-79.451l.002-.306c0-1.381 1.119-2.5 2.5-2.5h15.343c.968 0 1.85.559 2.262 1.436.412.876.281 1.912-.336 2.658-.118.143-.238.281-.358.42-.115.133-.23.265-.342.403-.842 1.05-1.225 2.367-1.077 3.706.147 1.34.808 2.542 1.86 3.385 1.051.843 2.365 1.229 3.708 1.078 1.34-.147 2.542-.808 3.385-1.86 3.272-4.083 7.054-7.698 11.239-10.747.428-.312.943-.479 1.472-.479h17.714c.754 0 1.468.341 1.943.927l6.191 7.648c.55.68.705 1.598.409 2.42s-1.001 1.431-1.859 1.603c-10.783 2.171-20.14 8.404-26.346 17.551-1.562 2.302-.96 5.446 1.342 7.009 1.115.757 2.459 1.035 3.782.78 1.324-.253 2.47-1.007 3.226-2.122 5.96-8.782 15.472-13.868 26.096-13.955.641.008 1.308.255 1.781.725.473.469.739 1.108.739 1.775v18.443c0 1.361-1.088 2.472-2.449 2.5-5.34.109-9.684 4.54-9.684 9.877s4.344 9.767 9.684 9.876c1.361.028 2.449 1.139 2.449 2.5v46.172c0 .669-.268 1.31-.744 1.78-.467.461-1.098.719-1.754.719zm-67.164-111.227c.717 56.933 29.228 103.529 64.664 106.118v-41.319c-6.879-1.308-12.133-7.415-12.133-14.619s5.254-13.312 12.133-14.62v-13.564c-7.931.78-14.932 4.928-19.479 11.629-1.506 2.22-3.788 3.721-6.423 4.226-2.637.504-5.311-.048-7.531-1.554-4.583-3.112-5.78-9.371-2.671-13.954 6.183-9.111 15.16-15.639 25.572-18.679l-2.965-3.663h-15.698c-3.57 2.685-6.808 5.829-9.634 9.353-1.678 2.094-4.071 3.409-6.739 3.703-2.665.295-5.289-.469-7.383-2.146-2.094-1.679-3.409-4.072-3.703-6.739-.157-1.428-.012-2.842.415-4.17h-8.425z" data-original="#000000" class="" style="fill:#000000"/><path d="m128.355 241.637c-19.662 0-38.063-11.952-51.814-33.654-13.526-21.348-20.975-49.681-20.975-79.78l.002-.306c0-1.381 1.119-2.5 2.5-2.5h15.343c.968 0 1.85.559 2.262 1.436.412.876.281 1.912-.336 2.658-.118.143-.238.281-.358.42-.115.133-.23.265-.342.403-.842 1.05-1.225 2.367-1.077 3.706.147 1.34.809 2.542 1.86 3.385s2.365 1.229 3.708 1.078c1.34-.147 2.542-.808 3.385-1.86 3.272-4.083 7.054-7.698 11.239-10.747.428-.312.943-.479 1.472-.479h17.714c.754 0 1.468.341 1.943.927l6.191 7.648c.55.68.705 1.597.409 2.42s-1.001 1.431-1.859 1.603c-10.783 2.171-20.14 8.404-26.346 17.551-1.562 2.302-.96 5.446 1.342 7.009 1.115.757 2.459 1.033 3.782.781 1.324-.254 2.47-1.007 3.226-2.123 6.613-9.745 17.572-14.921 29.327-13.834.671.062 1.29.392 1.714.917l16.701 20.633c1.554 1.92 4.382 2.218 6.303.664 1.109-.897 1.71-2.237 1.65-3.676-.053-1.258.837-2.358 2.077-2.57 1.721-.293 3.102-1.385 3.789-2.995.685-1.607.516-3.359-.465-4.806-6.158-9.077-15.426-15.292-26.094-17.502-.565-.117-1.073-.427-1.437-.875l-6.231-7.699c-.606-.749-.728-1.78-.313-2.649s1.293-1.423 2.256-1.423h29.865c.529 0 1.045.168 1.473.479 4.198 3.06 7.981 6.675 11.245 10.746.843 1.052 2.045 1.713 3.385 1.86 1.341.151 2.657-.235 3.708-1.078 2.171-1.74 2.522-4.922.782-7.093-.128-.16-.259-.315-.39-.47l-.295-.354c-.616-.747-.746-1.781-.333-2.657s1.293-1.434 2.261-1.434h16.036c1.376 0 2.494 1.112 2.5 2.488l.005.317c0 30.1-7.449 58.433-20.975 79.78-13.752 21.703-32.153 33.655-51.815 33.655zm-67.775-111.24c.733 58.782 30.855 106.24 67.775 106.24s67.041-47.458 67.774-106.24h-9.136c.426 1.328.572 2.743.414 4.171-.294 2.667-1.609 5.06-3.703 6.738-2.092 1.678-4.711 2.444-7.383 2.146-2.667-.294-5.061-1.609-6.738-3.703-2.818-3.515-6.059-6.658-9.641-9.353h-23.8l2.382 2.942c11.576 2.629 21.613 9.492 28.335 19.4 1.925 2.84 2.271 6.419.926 9.574-1.079 2.529-3.104 4.463-5.604 5.428-.393 2.236-1.579 4.293-3.365 5.738-4.064 3.289-10.046 2.659-13.335-1.404l-16.021-19.793c-9.505-.523-18.315 3.81-23.696 11.739-1.506 2.22-3.788 3.721-6.423 4.226-2.637.504-5.311-.048-7.531-1.554-4.583-3.112-5.78-9.371-2.671-13.954 6.183-9.111 15.16-15.639 25.572-18.679l-2.965-3.663h-15.697c-3.57 2.685-6.808 5.829-9.634 9.353-1.678 2.094-4.071 3.409-6.739 3.703-2.665.295-5.289-.469-7.383-2.146-2.094-1.679-3.409-4.072-3.703-6.739-.157-1.428-.012-2.842.415-4.17zm67.42 65.068c-8.209 0-14.889-6.679-14.889-14.889s6.679-14.889 14.889-14.889 14.889 6.679 14.889 14.889-6.68 14.889-14.889 14.889zm0-24.778c-5.453 0-9.889 4.436-9.889 9.889s4.436 9.889 9.889 9.889 9.889-4.436 9.889-9.889-4.436-9.889-9.889-9.889z" data-original="#000000" class="" style="fill:#000000"/><path d="m128.355 200.991c-30.099 0-58.433-7.449-79.78-20.975-21.702-13.75-33.654-32.152-33.654-51.813l.004-.229c.006-1.376 1.126-2.577 2.502-2.577h55.984c.968 0 1.85.559 2.262 1.436.412.876.281 1.912-.336 2.658-.118.143-.238.281-.358.42-.115.133-.23.265-.342.403-.842 1.05-1.225 2.367-1.077 3.706.147 1.34.809 2.542 1.86 3.385s2.365 1.229 3.708 1.078c1.34-.147 2.542-.808 3.385-1.86 3.272-4.083 7.054-7.698 11.239-10.747.428-.312.943-.479 1.472-.479h17.714c.754 0 1.468.341 1.943.927l6.191 7.648c.55.68.705 1.597.409 2.42s-1.001 1.431-1.859 1.603c-10.783 2.171-20.14 8.404-26.346 17.551-1.562 2.302-.96 5.446 1.342 7.009 1.115.757 2.459 1.033 3.782.781 1.324-.254 2.47-1.007 3.226-2.123 6.613-9.745 17.572-14.921 29.327-13.834.671.062 1.29.392 1.714.917l16.701 20.633c1.554 1.92 4.382 2.218 6.303.664 1.109-.897 1.71-2.237 1.65-3.676-.053-1.257.837-2.358 2.077-2.57 1.721-.293 3.102-1.385 3.789-2.995.685-1.607.516-3.359-.465-4.806-6.158-9.077-15.426-15.292-26.094-17.502-.565-.117-1.073-.427-1.437-.875l-6.231-7.699c-.606-.749-.728-1.78-.313-2.649s1.293-1.423 2.256-1.423h29.865c.529 0 1.045.168 1.473.479 4.198 3.06 7.981 6.675 11.245 10.746.843 1.052 2.045 1.713 3.385 1.86 1.341.151 2.657-.235 3.708-1.078 2.171-1.74 2.522-4.922.782-7.093-.128-.16-.259-.315-.39-.47l-.295-.354c-.616-.747-.746-1.781-.333-2.657s1.293-1.434 2.261-1.434h56.679c1.376 0 2.493 1.112 2.5 2.488l.007.318c0 19.662-11.952 38.063-33.653 51.813-21.349 13.526-49.682 20.975-79.782 20.975zm-108.371-70.594c1.926 36.415 49.8 65.594 108.372 65.594 58.615 0 106.517-29.228 108.377-65.594h-49.744c1.231 3.849.054 8.234-3.283 10.909-2.092 1.678-4.711 2.444-7.383 2.146-2.667-.294-5.061-1.609-6.738-3.703-2.818-3.515-6.058-6.658-9.641-9.353h-23.8l2.382 2.942c11.576 2.629 21.613 9.492 28.335 19.4 1.925 2.84 2.271 6.419.926 9.574-1.079 2.529-3.104 4.463-5.604 5.428-.393 2.236-1.579 4.293-3.365 5.738-4.064 3.289-10.046 2.659-13.335-1.404l-16.021-19.793c-9.505-.523-18.315 3.81-23.696 11.739-1.506 2.22-3.788 3.721-6.423 4.226-2.637.504-5.311-.048-7.531-1.555-4.583-3.111-5.78-9.37-2.671-13.953 6.183-9.111 15.16-15.639 25.572-18.679l-2.965-3.663h-15.699c-3.57 2.685-6.808 5.829-9.634 9.353-1.678 2.094-4.071 3.409-6.739 3.703-2.665.295-5.289-.469-7.383-2.146-2.094-1.679-3.409-4.072-3.703-6.739-.157-1.428-.012-2.842.415-4.17zm108.016 65.068c-8.209 0-14.889-6.679-14.889-14.889s6.679-14.889 14.889-14.889 14.889 6.679 14.889 14.889-6.68 14.889-14.889 14.889zm0-24.778c-5.453 0-9.889 4.436-9.889 9.889s4.436 9.889 9.889 9.889 9.889-4.436 9.889-9.889-4.436-9.889-9.889-9.889z" data-original="#000000" class="" style="fill:#000000"/><path d="m160.768 130.397h-29.865c-.754 0-1.469-.341-1.943-.927l-8.386-10.36c-.579-.715-.718-1.689-.363-2.538s1.147-1.434 2.062-1.523c14.271-1.398 28.466 2.446 39.968 10.828.875.638 1.24 1.766.904 2.795-.335 1.028-1.294 1.725-2.377 1.725zm-28.672-5h19.784c-7.511-3.769-15.855-5.71-24.339-5.628z" data-original="#000000" class="" style="fill:#000000"/><path d="m239.285 130.397h-56.683c-.746 0-1.452-.333-1.927-.907-16.693-20.193-42.932-28.995-68.474-22.971-.933.22-1.913-.113-2.517-.86l-24.438-30.194c-1.554-1.92-4.382-2.218-6.303-.664-.93.753-1.512 1.823-1.637 3.014s.22 2.358.974 3.289l1.301 1.608c.008.009.016.019.024.029l19.963 24.663c.482.596.665 1.38.494 2.128-.17.748-.674 1.375-1.367 1.704-9.015 4.271-16.873 10.413-23.357 18.254-.475.574-1.182.907-1.927.907h-55.986c-1.376 0-2.493-1.112-2.5-2.488l-.004-.318c0-62.547 50.886-113.434 113.434-113.434 62.547 0 113.434 50.886 113.434 113.434l-.004.318c-.007 1.376-1.124 2.488-2.5 2.488zm-55.517-5h53c-1.173-58.781-49.354-106.239-108.412-106.239s-107.239 47.458-108.413 106.239h52.303c6.109-7.16 13.319-12.955 21.479-17.263l-7.054-8.715c-6.977 4.385-13.2 9.85-18.521 16.266-3.536 4.265-9.881 4.855-14.146 1.32-4.262-3.536-4.854-9.881-1.32-14.145 6.152-7.418 13.307-13.851 21.299-19.153-1.308-1.871-1.892-4.124-1.651-6.416.266-2.519 1.496-4.783 3.464-6.376s4.44-2.327 6.958-2.06c2.519.266 4.783 1.496 6.376 3.464l1.918 2.369c18.481-7.509 39.291-9.207 58.821-4.764 21.07 4.794 39.551 16.182 53.443 32.933 1.717 2.069 2.522 4.683 2.269 7.359-.253 2.667-1.527 5.078-3.588 6.787-4.265 3.537-10.61 2.944-14.146-1.319-20.245-24.411-53.385-34.001-83.426-24.475l8.172 10.096c26.535-5.676 53.574 3.466 71.175 24.092zm-55.885-42.816c24.194 0 47.796 10.597 63.814 29.912.86 1.037 2.074 1.678 3.416 1.803 1.342.126 2.653-.28 3.69-1.14 1.035-.858 1.675-2.069 1.802-3.41.127-1.343-.277-2.656-1.14-3.695-13.184-15.896-30.717-26.702-50.704-31.25-18.042-4.104-37.233-2.689-54.416 3.96l6.714 8.294c8.784-3.014 17.846-4.474 26.824-4.474zm-50.758 5.044c-7.736 5.078-14.655 11.269-20.591 18.426-1.775 2.142-1.478 5.33.663 7.105 2.141 1.776 5.329 1.479 7.105-.663 5.531-6.67 11.981-12.375 19.202-16.987z" data-original="#000000" class="" style="fill:#000000"/><path d="m112.939 130.397h-17.714c-1.083 0-2.042-.697-2.377-1.726s.03-2.157.905-2.794c3.958-2.883 8.268-5.254 12.812-7.047 1.016-.4 2.174-.096 2.861.753l5.457 6.742c.606.749.728 1.78.313 2.649s-1.294 1.423-2.257 1.423zm-8.825-5h3.585l-.985-1.217c-.877.382-1.744.788-2.6 1.217z" data-original="#000000" class="" style="fill:#000000"/><path d="m73.412 130.397h-15.343c-1.381 0-2.5-1.119-2.5-2.5l-.002-.306c0-3.714.118-7.484.351-11.206.047-.751.43-1.441 1.042-1.878.613-.438 1.391-.576 2.116-.376 1.914.528 3.966-.117 5.227-1.638 5.531-6.671 11.981-12.375 19.202-16.987l-6.379-7.881c-5.279 3.469-10.229 7.504-14.736 12.016-.771.771-1.953.954-2.922.451-.968-.503-1.498-1.577-1.309-2.651 4.072-23.167 13.001-44.134 25.143-59.039 12.734-15.632 28.091-24.012 44.408-24.232.673-.007 1.313.25 1.79.72s.744 1.111.744 1.78v53.318c0 1.378-1.115 2.496-2.493 2.5-11.553.035-22.774 2.143-33.406 6.271l6.715 8.296c8.563-2.939 17.528-4.445 26.674-4.479.667-.019 1.303.26 1.774.729s.735 1.106.735 1.771v17.116c0 1.377-1.113 2.495-2.491 2.5-5.264.02-10.496.635-15.551 1.827-.933.22-1.913-.113-2.517-.86l-24.438-30.194c-1.554-1.92-4.382-2.218-6.303-.664s-2.218 4.382-.664 6.303l1.301 1.608c.008.009.016.019.024.029l19.963 24.663c.482.596.665 1.38.494 2.128-.17.748-.674 1.375-1.367 1.704-9.015 4.271-16.873 10.413-23.357 18.254-.474.574-1.18.907-1.925.907zm-12.831-5h11.666c6.109-7.16 13.319-12.955 21.479-17.263l-7.054-8.715c-6.977 4.385-13.2 9.85-18.521 16.266-1.855 2.237-4.565 3.521-7.387 3.621-.097 2.029-.158 4.065-.183 6.091zm43.842-34.187 8.172 10.096c4.139-.881 8.378-1.405 12.648-1.564v-12.117c-7.112.25-14.092 1.452-20.82 3.585zm20.821-71.929c-27.288 2.021-51.386 30.61-60.653 71.52 2.994-2.557 6.133-4.927 9.394-7.093-1.309-1.871-1.893-4.124-1.651-6.416.266-2.519 1.496-4.783 3.464-6.376 4.064-3.29 10.046-2.659 13.335 1.405l1.917 2.369c10.881-4.431 22.364-6.835 34.194-7.163z" data-original="#000000" class="" style="fill:#000000"/><path d="m127.744 126.494c-.74 0-1.46-.329-1.944-.927l-5.227-6.458c-.579-.715-.718-1.689-.363-2.538s1.147-1.434 2.062-1.523c1.652-.162 3.438-.245 5.459-.255.66-.003 1.304.259 1.775.728s.736 1.107.736 1.772v6.701c0 1.059-.667 2.003-1.666 2.357-.271.097-.553.143-.832.143z" data-original="#000000" class="" style="fill:#000000"/><path d="m112.939 130.397h-17.714c-1.083 0-2.042-.697-2.377-1.726s.03-2.157.905-2.795c3.959-2.883 8.27-5.254 12.812-7.046 1.016-.4 2.174-.096 2.861.753l5.457 6.742c.606.749.728 1.78.313 2.649s-1.294 1.423-2.257 1.423zm-8.825-5h3.585l-.985-1.217c-.878.382-1.744.788-2.6 1.217z" data-original="#000000" class="" style="fill:#000000"/><path d="m112.939 130.397h-17.714c-1.083 0-2.042-.697-2.377-1.726s.03-2.157.905-2.795c3.959-2.883 8.27-5.254 12.812-7.046 1.016-.4 2.174-.096 2.861.753l5.457 6.742c.606.749.728 1.78.313 2.649s-1.294 1.423-2.257 1.423zm-8.825-5h3.585l-.985-1.217c-.878.382-1.744.788-2.6 1.217z" data-original="#000000" class="" style="fill:#000000"/><path d="m198.638 130.397h-16.036c-.746 0-1.452-.333-1.927-.907-16.693-20.193-42.932-28.995-68.474-22.971-.933.22-1.913-.113-2.517-.86l-24.438-30.194c-1.554-1.92-4.382-2.218-6.303-.664-.93.753-1.512 1.823-1.637 3.014s.22 2.358.974 3.289l1.301 1.608c.008.009.016.019.024.029l19.963 24.663c.482.596.665 1.38.494 2.128-.17.748-.674 1.375-1.367 1.704-9.015 4.271-16.873 10.413-23.357 18.254-.475.574-1.182.907-1.927.907h-15.342c-1.381 0-2.5-1.119-2.5-2.5l-.002-.306c0-3.717.118-7.487.352-11.206.047-.751.43-1.441 1.043-1.878.613-.438 1.39-.576 2.115-.376 1.914.526 3.964-.117 5.226-1.638 5.531-6.671 11.981-12.375 19.202-16.987l-6.379-7.881c-5.28 3.47-10.229 7.505-14.735 12.016-.771.771-1.954.954-2.922.451s-1.498-1.577-1.309-2.651c8.619-49.036 37.485-83.284 70.197-83.284 32.98 0 61.907 34.604 70.344 84.149.184 1.08-.356 2.153-1.332 2.649-.977.497-2.162.299-2.925-.486-25.808-26.542-65.646-35.063-100.098-21.71l6.715 8.295c32.455-11.137 68.676-1.043 90.637 25.438 1.382 1.665 3.668 2.262 5.691 1.485.741-.285 1.576-.2 2.246.229.669.429 1.095 1.151 1.146 1.945.241 3.783.364 7.631.364 11.439l-.003.224c-.009 1.377-1.128 2.583-2.504 2.583zm-14.87-5h12.36c-.025-2.047-.086-4.077-.181-6.089-3.053.123-6.068-1.176-8.099-3.624-20.245-24.41-53.385-34.001-83.426-24.474l8.172 10.096c26.534-5.677 53.571 3.465 71.174 24.091zm-123.187 0h11.666c6.109-7.16 13.319-12.955 21.479-17.263l-7.054-8.715c-6.977 4.385-13.2 9.85-18.521 16.266-1.855 2.237-4.565 3.521-7.387 3.621-.096 2.028-.158 4.065-.183 6.091zm67.342-57.937c6.121 0 12.266.573 18.375 1.726 17.187 3.246 32.938 10.921 45.986 22.346-9.494-42.99-35.105-72.374-63.929-72.374-28.588 0-54.139 29.092-63.766 71.644 2.994-2.557 6.133-4.928 9.395-7.094-1.309-1.871-1.893-4.124-1.651-6.416.266-2.519 1.496-4.784 3.464-6.377 4.064-3.29 10.046-2.659 13.335 1.405l1.917 2.369c11.781-4.798 24.269-7.229 36.874-7.229z" data-original="#000000" class="" style="fill:#000000"/><path d="m160.768 130.397h-29.865c-.754 0-1.469-.341-1.943-.927l-17.487-21.604c-.869-1.073-.703-2.647.371-3.516s2.647-.703 3.516.371l8.266 10.211c13.815-1.036 27.477 2.827 38.616 10.945.875.638 1.24 1.766.904 2.795s-1.295 1.725-2.378 1.725zm-28.672-5h19.784c-7.511-3.769-15.855-5.71-24.34-5.628z" data-original="#000000" class="" style="fill:#000000"/><path d="m239.282 130.397h-56.679c-.746 0-1.452-.333-1.927-.907-16.693-20.193-42.932-28.995-68.474-22.971-.933.22-1.913-.113-2.517-.86l-24.439-30.194c-.753-.93-1.823-1.512-3.014-1.637-1.187-.124-2.358.22-3.289.974-.93.753-1.512 1.823-1.637 3.014s.22 2.358.974 3.289l1.301 1.608c.008.009.016.019.024.029l19.963 24.663c.482.596.665 1.38.494 2.128-.17.748-.674 1.375-1.367 1.704-9.015 4.271-16.873 10.413-23.357 18.254-.475.574-1.182.907-1.927.907h-55.984c-1.376 0-2.493-1.112-2.5-2.488l-.006-.318c0-19.662 11.952-38.063 33.654-51.813 21.348-13.526 49.681-20.975 79.78-20.975s58.432 7.449 79.78 20.975c21.702 13.75 33.653 32.152 33.653 51.813l-.005.24c-.006 1.376-1.125 2.565-2.501 2.565zm-55.514-5h52.959c-1.92-36.405-49.796-65.594-108.371-65.594-58.616 0-106.518 29.228-108.378 65.594h52.269c6.109-7.16 13.319-12.955 21.479-17.263l-7.054-8.715c-6.977 4.385-13.2 9.85-18.521 16.266-3.536 4.264-9.881 4.855-14.146 1.32-4.262-3.536-4.854-9.881-1.32-14.145 6.152-7.418 13.307-13.851 21.299-19.153-1.308-1.871-1.892-4.124-1.65-6.416.266-2.519 1.496-4.783 3.464-6.376s4.44-2.327 6.958-2.06c2.519.266 4.784 1.496 6.377 3.464l1.918 2.369c18.481-7.509 39.291-9.207 58.821-4.764 21.07 4.794 39.551 16.182 53.443 32.933 1.717 2.069 2.522 4.683 2.269 7.359-.253 2.667-1.527 5.078-3.588 6.787-4.264 3.538-10.61 2.943-14.146-1.319-20.245-24.411-53.385-34.001-83.426-24.475l8.172 10.096c26.532-5.676 53.571 3.466 71.172 24.092zm-55.885-42.816c24.194 0 47.796 10.597 63.814 29.912.86 1.037 2.074 1.678 3.416 1.803 1.342.126 2.653-.28 3.69-1.14 1.035-.858 1.675-2.069 1.802-3.41.127-1.343-.277-2.656-1.14-3.695-13.184-15.896-30.717-26.702-50.704-31.25-18.042-4.104-37.233-2.689-54.416 3.96l6.714 8.294c8.784-3.014 17.846-4.474 26.824-4.474zm-50.758 5.044c-7.736 5.078-14.655 11.269-20.591 18.426-1.775 2.142-1.478 5.33.663 7.105 2.141 1.776 5.329 1.478 7.105-.663 5.531-6.671 11.981-12.375 19.202-16.987z" data-original="#000000" class="" style="fill:#000000"/><path d="m160.768 130.397h-29.865c-.754 0-1.469-.341-1.943-.927l-8.386-10.36c-.579-.715-.718-1.689-.363-2.538s1.147-1.434 2.062-1.523c14.271-1.398 28.466 2.446 39.968 10.828.875.638 1.24 1.766.904 2.795-.335 1.028-1.294 1.725-2.377 1.725zm-28.672-5h19.784c-7.511-3.769-15.855-5.71-24.339-5.628z" data-original="#000000" class="" style="fill:#000000"/><path d="m112.939 130.397h-17.714c-1.083 0-2.042-.697-2.377-1.726s.03-2.157.905-2.795c3.959-2.883 8.27-5.254 12.812-7.046 1.016-.4 2.174-.096 2.861.753l5.457 6.742c.606.749.728 1.78.313 2.649s-1.294 1.423-2.257 1.423zm-8.825-5h3.585l-.985-1.217c-.878.382-1.744.788-2.6 1.217z" data-original="#000000" class="" style="fill:#000000"/><path d="m128 195.465c-8.209 0-14.889-6.679-14.889-14.889s6.679-14.889 14.889-14.889 14.889 6.679 14.889 14.889-6.68 14.889-14.889 14.889zm0-24.778c-5.453 0-9.889 4.436-9.889 9.889s4.436 9.889 9.889 9.889 9.889-4.436 9.889-9.889-4.436-9.889-9.889-9.889z" data-original="#000000" class="" style="fill:#000000"/><path d="m152.861 175.586c-2.766 0-5.508-1.2-7.379-3.512l-71.089-87.824c-1.593-1.968-2.325-4.439-2.06-6.958.266-2.519 1.496-4.784 3.464-6.377s4.44-2.327 6.958-2.06c2.519.266 4.783 1.496 6.376 3.464l71.089 87.824c1.593 1.968 2.325 4.439 2.06 6.958s-1.495 4.784-3.464 6.377c-1.75 1.419-3.859 2.108-5.955 2.108zm-3.493-6.658c1.555 1.921 4.382 2.218 6.304.664.93-.753 1.512-1.823 1.637-3.014.125-1.19-.221-2.358-.974-3.289l-71.09-87.825c-.753-.93-1.823-1.512-3.014-1.637-1.187-.124-2.358.22-3.289.974-.93.753-1.512 1.823-1.637 3.014s.22 2.358.974 3.289z" data-original="#000000" class="" style="fill:#000000"/><path d="m177.442 143.515c-.372 0-.745-.021-1.12-.062-2.667-.294-5.061-1.609-6.739-3.703-11.317-14.118-28.827-21.499-46.823-19.725-.833.08-1.658-.262-2.188-.916l-10.888-13.451c-.541-.668-.7-1.568-.422-2.381s.955-1.427 1.792-1.625c27.879-6.577 56.313 3.209 74.206 25.532 3.464 4.322 2.766 10.657-1.556 14.122-1.798 1.443-3.988 2.209-6.262 2.209zm-49.408-28.749c17.614 0 34.285 7.926 45.452 21.857.843 1.052 2.045 1.712 3.385 1.86 1.344.151 2.657-.235 3.708-1.078 2.171-1.74 2.522-4.922.782-7.093-15.83-19.75-40.515-28.967-65.205-24.607l7.47 9.228c1.473-.112 2.945-.167 4.408-.167z" data-original="#000000" class="" style="fill:#000000"/><path d="m78.557 143.515c-2.274 0-4.463-.766-6.263-2.208-2.094-1.679-3.409-4.072-3.703-6.739s.469-5.289 2.147-7.382c7.06-8.809 15.746-15.695 25.816-20.467 1.041-.493 2.287-.21 3.014.687l9.857 12.178c.5.619.677 1.439.474 2.209-.202.77-.759 1.397-1.5 1.689-8.557 3.376-16.159 9.002-21.984 16.269-1.678 2.094-4.071 3.409-6.739 3.703-.374.04-.748.061-1.119.061zm18.38-31.414c-8.636 4.397-16.13 10.516-22.297 18.211-.843 1.052-1.226 2.369-1.079 3.708.147 1.34.809 2.542 1.86 3.385s2.363 1.227 3.708 1.078c1.34-.147 2.542-.808 3.385-1.86 5.656-7.057 12.849-12.699 20.948-16.461z" data-original="#000000" class="" style="fill:#000000"/><path d="m60.41 119.313c-2.26 0-4.533-.756-6.405-2.309-4.262-3.536-4.854-9.881-1.32-14.145 6.749-8.139 14.708-15.092 23.654-20.667 1.072-.667 2.471-.433 3.266.549l9.578 11.833c.457.565.646 1.301.517 2.017-.129.715-.563 1.339-1.189 1.709-7.725 4.561-14.574 10.41-20.358 17.386-1.986 2.391-4.855 3.627-7.743 3.627zm16.714-31.688c-7.737 5.08-14.656 11.27-20.59 18.426-1.775 2.142-1.478 5.33.663 7.105 2.141 1.776 5.329 1.479 7.105-.663 5.532-6.67 11.981-12.375 19.202-16.986z" data-original="#000000" class="" style="fill:#000000"/><path d="m195.599 119.318c-.315 0-.632-.015-.951-.044-2.672-.249-5.086-1.524-6.799-3.589-20.995-25.315-55.859-34.692-86.756-23.334-1.005.368-2.133.058-2.806-.774l-9.944-12.285c-.492-.608-.671-1.413-.484-2.172.188-.76.721-1.388 1.44-1.697 18.911-8.128 40.422-10.08 60.572-5.496 21.07 4.794 39.551 16.182 53.443 32.933 1.716 2.07 2.522 4.683 2.269 7.358-.253 2.668-1.527 5.079-3.588 6.787-1.82 1.508-4.061 2.313-6.396 2.313zm-67.717-36.737c24.195 0 47.797 10.598 63.815 29.912.86 1.037 2.073 1.677 3.415 1.802 1.342.126 2.653-.28 3.69-1.14 1.035-.858 1.675-2.069 1.802-3.41.127-1.343-.277-2.656-1.139-3.695-13.184-15.896-30.717-26.702-50.704-31.249-18.042-4.104-37.233-2.689-54.416 3.96l6.714 8.294c8.784-3.014 17.846-4.474 26.823-4.474z" data-original="#000000" class="" style="fill:#000000"/><path d="m97.431 168.429c-1.992 0-3.937-.594-5.62-1.737-4.583-3.111-5.781-9.37-2.672-13.953 6.947-10.237 17.423-17.214 29.498-19.644.912-.186 1.851.154 2.437.878l11.594 14.323c.632.781.735 1.865.261 2.751-.474.887-1.426 1.409-2.434 1.311-9.911-.91-19.155 3.448-24.73 11.663-1.507 2.22-3.788 3.721-6.423 4.226-.637.121-1.277.182-1.911.182zm20.727-30.111c-10.164 2.422-18.958 8.498-24.881 17.228-1.562 2.302-.96 5.446 1.342 7.009 1.116.757 2.459 1.033 3.782.781 1.324-.254 2.47-1.007 3.226-2.123 5.567-8.203 14.218-13.166 23.825-13.885z" data-original="#000000" class="" style="fill:#000000"/><path d="m159.805 168.314c-.569 0-1.126-.194-1.575-.558-.557-.452-.894-1.122-.923-1.839-.041-.984-.376-1.893-.972-2.628l-21.144-26.121c-.665-.821-.741-1.971-.191-2.874.549-.902 1.609-1.36 2.642-1.147 11.949 2.475 22.326 9.433 29.219 19.592 1.927 2.843 2.272 6.426.922 9.584-1.351 3.159-4.178 5.386-7.562 5.956-.139.024-.278.035-.416.035zm-15.574-27.925 15.991 19.755c.564.697 1.02 1.462 1.359 2.277.691-.518 1.243-1.219 1.604-2.063.688-1.609.52-3.363-.463-4.812-4.641-6.84-11.049-12.057-18.491-15.157z" data-original="#000000" class="" style="fill:#000000"/></g> </svg>
